<mxfile host="65bd71144e">
    <diagram id="mmeS8SJjENBjC42MiOI5" name="Page-1">
        <mxGraphModel dx="1158" dy="786" grid="1" gridSize="10" guides="1" tooltips="1" connect="1" arrows="1" fold="1" page="1" pageScale="1" pageWidth="850" pageHeight="1100" math="0" shadow="0">
            <root>
                <mxCell id="0"/>
                <mxCell id="1" parent="0"/>
                <mxCell id="3" value="WS2812Effect" style="shape=umlLifeline;perimeter=lifelinePerimeter;whiteSpace=wrap;html=1;container=1;dropTarget=0;collapsible=0;recursiveResize=0;outlineConnect=0;portConstraint=eastwest;newEdgeStyle={&quot;curved&quot;:0,&quot;rounded&quot;:0};" parent="1" vertex="1">
                    <mxGeometry x="340" y="40" width="100" height="480" as="geometry"/>
                </mxCell>
                <mxCell id="9" value="" style="html=1;points=[[0,0,0,0,5],[0,1,0,0,-5],[1,0,0,0,5],[1,1,0,0,-5]];perimeter=orthogonalPerimeter;outlineConnect=0;targetShapes=umlLifeline;portConstraint=eastwest;newEdgeStyle={&quot;curved&quot;:0,&quot;rounded&quot;:0};" parent="3" vertex="1">
                    <mxGeometry x="45" y="80" width="10" height="40" as="geometry"/>
                </mxCell>
                <mxCell id="21" value="" style="html=1;points=[[0,0,0,0,5],[0,1,0,0,-5],[1,0,0,0,5],[1,1,0,0,-5]];perimeter=orthogonalPerimeter;outlineConnect=0;targetShapes=umlLifeline;portConstraint=eastwest;newEdgeStyle={&quot;curved&quot;:0,&quot;rounded&quot;:0};" parent="3" vertex="1">
                    <mxGeometry x="45" y="200" width="10" height="20" as="geometry"/>
                </mxCell>
                <mxCell id="42" value="" style="html=1;points=[[0,0,0,0,5],[0,1,0,0,-5],[1,0,0,0,5],[1,1,0,0,-5]];perimeter=orthogonalPerimeter;outlineConnect=0;targetShapes=umlLifeline;portConstraint=eastwest;newEdgeStyle={&quot;curved&quot;:0,&quot;rounded&quot;:0};" parent="3" vertex="1">
                    <mxGeometry x="45" y="360" width="10" height="70" as="geometry"/>
                </mxCell>
                <mxCell id="44" value="" style="html=1;points=[[0,0,0,0,5],[0,1,0,0,-5],[1,0,0,0,5],[1,1,0,0,-5]];perimeter=orthogonalPerimeter;outlineConnect=0;targetShapes=umlLifeline;portConstraint=eastwest;newEdgeStyle={&quot;curved&quot;:0,&quot;rounded&quot;:0};rounded=0;align=center;verticalAlign=middle;fontFamily=Helvetica;fontSize=9;fontColor=default;fillColor=none;gradientColor=none;" parent="3" vertex="1">
                    <mxGeometry x="195" y="380" width="10" height="30" as="geometry"/>
                </mxCell>
                <mxCell id="43" value="For each ModMatrixEntry&amp;nbsp;" style="html=1;align=left;spacingLeft=2;endArrow=none;rounded=0;edgeStyle=orthogonalEdgeStyle;curved=0;rounded=0;fontFamily=Helvetica;fontSize=9;fontColor=default;startArrow=classic;startFill=1;endFill=0;" parent="3" source="42" edge="1">
                    <mxGeometry x="0.8929" y="10" relative="1" as="geometry">
                        <mxPoint x="45" y="390" as="sourcePoint"/>
                        <Array as="points">
                            <mxPoint x="160" y="360"/>
                            <mxPoint x="160" y="430"/>
                        </Array>
                        <mxPoint x="55" y="430" as="targetPoint"/>
                        <mxPoint as="offset"/>
                    </mxGeometry>
                </mxCell>
                <mxCell id="46" value="&lt;div&gt;&lt;br&gt;&lt;/div&gt;&lt;div&gt;&lt;br&gt;&lt;/div&gt;" style="html=1;verticalAlign=bottom;endArrow=open;dashed=1;endSize=8;curved=0;rounded=0;fontFamily=Helvetica;fontSize=9;fontColor=default;" parent="3" source="44" target="42" edge="1">
                    <mxGeometry relative="1" as="geometry">
                        <mxPoint x="125" y="445" as="targetPoint"/>
                        <Array as="points">
                            <mxPoint x="120" y="410"/>
                        </Array>
                    </mxGeometry>
                </mxCell>
                <mxCell id="45" value="" style="html=1;verticalAlign=bottom;endArrow=block;curved=0;rounded=0;fontFamily=Helvetica;fontSize=9;fontColor=default;" parent="3" source="42" target="44" edge="1">
                    <mxGeometry relative="1" as="geometry">
                        <mxPoint x="125" y="375" as="sourcePoint"/>
                        <Array as="points">
                            <mxPoint x="120" y="380"/>
                        </Array>
                    </mxGeometry>
                </mxCell>
                <mxCell id="48" value="Set modulation&lt;div&gt;to source * amount&lt;/div&gt;" style="edgeLabel;html=1;align=center;verticalAlign=middle;resizable=0;points=[];rounded=0;fontFamily=Helvetica;fontSize=9;fontColor=default;fillColor=none;gradientColor=none;" parent="45" vertex="1" connectable="0">
                    <mxGeometry x="-0.422" y="1" relative="1" as="geometry">
                        <mxPoint x="7" y="1" as="offset"/>
                    </mxGeometry>
                </mxCell>
                <mxCell id="4" value="Derived effect" style="shape=umlLifeline;perimeter=lifelinePerimeter;whiteSpace=wrap;html=1;container=1;dropTarget=0;collapsible=0;recursiveResize=0;outlineConnect=0;portConstraint=eastwest;newEdgeStyle={&quot;curved&quot;:0,&quot;rounded&quot;:0};" parent="1" vertex="1">
                    <mxGeometry x="490" y="40" width="100" height="480" as="geometry"/>
                </mxCell>
                <mxCell id="19" value="" style="html=1;points=[[0,0,0,0,5],[0,1,0,0,-5],[1,0,0,0,5],[1,1,0,0,-5]];perimeter=orthogonalPerimeter;outlineConnect=0;targetShapes=umlLifeline;portConstraint=eastwest;newEdgeStyle={&quot;curved&quot;:0,&quot;rounded&quot;:0};" parent="4" vertex="1">
                    <mxGeometry x="45" y="120" width="10" height="40" as="geometry"/>
                </mxCell>
                <mxCell id="30" value="" style="html=1;points=[[0,0,0,0,5],[0,1,0,0,-5],[1,0,0,0,5],[1,1,0,0,-5]];perimeter=orthogonalPerimeter;outlineConnect=0;targetShapes=umlLifeline;portConstraint=eastwest;newEdgeStyle={&quot;curved&quot;:0,&quot;rounded&quot;:0};" parent="4" vertex="1">
                    <mxGeometry x="45" y="280" width="10" height="60" as="geometry"/>
                </mxCell>
                <mxCell id="50" value="Effect variables call getValue() to add&amp;nbsp;&lt;div&gt;their value to the scaled modulation value&lt;/div&gt;" style="html=1;align=left;spacingLeft=2;endArrow=block;rounded=0;edgeStyle=orthogonalEdgeStyle;curved=0;rounded=0;fontFamily=Helvetica;fontSize=9;fontColor=default;" parent="4" target="30" edge="1">
                    <mxGeometry relative="1" as="geometry">
                        <mxPoint x="55" y="280" as="sourcePoint"/>
                        <Array as="points">
                            <mxPoint x="85" y="280"/>
                            <mxPoint x="85" y="310"/>
                        </Array>
                        <mxPoint x="60" y="309.9999999999999" as="targetPoint"/>
                    </mxGeometry>
                </mxCell>
                <mxCell id="6" value="" style="shape=umlLifeline;perimeter=lifelinePerimeter;whiteSpace=wrap;html=1;container=1;dropTarget=0;collapsible=0;recursiveResize=0;outlineConnect=0;portConstraint=eastwest;newEdgeStyle={&quot;curved&quot;:0,&quot;rounded&quot;:0};participant=umlActor;" parent="1" vertex="1">
                    <mxGeometry x="120" y="40" width="20" height="360" as="geometry"/>
                </mxCell>
                <mxCell id="23" value="" style="html=1;points=[[0,0,0,0,5],[0,1,0,0,-5],[1,0,0,0,5],[1,1,0,0,-5]];perimeter=orthogonalPerimeter;outlineConnect=0;targetShapes=umlLifeline;portConstraint=eastwest;newEdgeStyle={&quot;curved&quot;:0,&quot;rounded&quot;:0};" parent="6" vertex="1">
                    <mxGeometry x="5" y="200" width="10" height="40" as="geometry"/>
                </mxCell>
                <mxCell id="11" value="" style="endArrow=none;dashed=1;html=1;dashPattern=1 3;strokeWidth=2;" parent="1" edge="1">
                    <mxGeometry width="50" height="50" relative="1" as="geometry">
                        <mxPoint x="80" y="220" as="sourcePoint"/>
                        <mxPoint x="680" y="220" as="targetPoint"/>
                    </mxGeometry>
                </mxCell>
                <mxCell id="18" value="&lt;font style=&quot;font-size: 9px;&quot;&gt;Init ModMatrixEntry for each source&lt;/font&gt;" style="text;html=1;align=center;verticalAlign=middle;whiteSpace=wrap;rounded=0;" parent="1" vertex="1">
                    <mxGeometry x="400" y="110" width="85" height="30" as="geometry"/>
                </mxCell>
                <mxCell id="25" value="&lt;font style=&quot;font-size: 8px;&quot;&gt;Call subclass constructor&lt;/font&gt;" style="html=1;verticalAlign=bottom;endArrow=block;curved=0;rounded=0;" parent="1" target="19" edge="1">
                    <mxGeometry x="0.0007" width="80" relative="1" as="geometry">
                        <mxPoint x="390" y="160" as="sourcePoint"/>
                        <mxPoint x="470" y="160" as="targetPoint"/>
                        <mxPoint as="offset"/>
                    </mxGeometry>
                </mxCell>
                <mxCell id="26" value="Assign anonymous mapping function to each parameter" style="text;html=1;align=center;verticalAlign=middle;whiteSpace=wrap;rounded=0;fontSize=9;" parent="1" vertex="1">
                    <mxGeometry x="540" y="165" width="135" height="30" as="geometry"/>
                </mxCell>
                <mxCell id="27" value="" style="endArrow=none;dashed=1;html=1;dashPattern=1 3;strokeWidth=2;" parent="1" edge="1">
                    <mxGeometry width="50" height="50" relative="1" as="geometry">
                        <mxPoint x="80" y="300" as="sourcePoint"/>
                        <mxPoint x="680" y="300" as="targetPoint"/>
                    </mxGeometry>
                </mxCell>
                <mxCell id="28" value="Constructor" style="text;html=1;align=center;verticalAlign=middle;whiteSpace=wrap;rounded=0;fontFamily=Helvetica;fontSize=9;fontColor=default;" parent="1" vertex="1">
                    <mxGeometry x="60" y="175" width="60" height="30" as="geometry"/>
                </mxCell>
                <mxCell id="29" value="Mod Matrix" style="text;html=1;align=center;verticalAlign=middle;whiteSpace=wrap;rounded=0;fontFamily=Helvetica;fontSize=9;fontColor=default;" parent="1" vertex="1">
                    <mxGeometry x="60" y="240" width="60" height="30" as="geometry"/>
                </mxCell>
                <mxCell id="35" value="mainWhile" style="shape=umlLifeline;perimeter=lifelinePerimeter;whiteSpace=wrap;html=1;container=1;dropTarget=0;collapsible=0;recursiveResize=0;outlineConnect=0;portConstraint=eastwest;newEdgeStyle={&quot;curved&quot;:0,&quot;rounded&quot;:0};rounded=0;align=center;verticalAlign=middle;fontFamily=Helvetica;fontSize=12;fontColor=default;fillColor=none;gradientColor=none;" parent="1" vertex="1">
                    <mxGeometry x="190" y="40" width="100" height="480" as="geometry"/>
                </mxCell>
                <mxCell id="37" value="Infinite loop" style="html=1;align=left;spacingLeft=2;endArrow=block;rounded=0;edgeStyle=orthogonalEdgeStyle;curved=0;rounded=0;fontFamily=Helvetica;fontSize=9;fontColor=default;" parent="35" source="36" target="36" edge="1">
                    <mxGeometry x="0.8437" y="10" relative="1" as="geometry">
                        <mxPoint x="45" y="300" as="sourcePoint"/>
                        <Array as="points">
                            <mxPoint x="160" y="270"/>
                            <mxPoint x="160" y="440"/>
                        </Array>
                        <mxPoint x="50.000000000000114" y="330.01960784313735" as="targetPoint"/>
                        <mxPoint as="offset"/>
                    </mxGeometry>
                </mxCell>
                <mxCell id="36" value="" style="html=1;points=[[0,0,0,0,5],[0,1,0,0,-5],[1,0,0,0,5],[1,1,0,0,-5]];perimeter=orthogonalPerimeter;outlineConnect=0;targetShapes=umlLifeline;portConstraint=eastwest;newEdgeStyle={&quot;curved&quot;:0,&quot;rounded&quot;:0};rounded=0;align=center;verticalAlign=middle;fontFamily=Helvetica;fontSize=9;fontColor=default;fillColor=default;gradientColor=none;" parent="35" vertex="1">
                    <mxGeometry x="45" y="270" width="10" height="170" as="geometry"/>
                </mxCell>
                <mxCell id="24" value="&lt;font style=&quot;font-size: 9px;&quot;&gt;Assign&amp;nbsp;&lt;span style=&quot;color: rgb(63, 63, 63);&quot;&gt;Destination D&lt;sub&gt;i&lt;/sub&gt;&amp;nbsp;&lt;/span&gt;&lt;/font&gt;&lt;div&gt;&lt;font style=&quot;font-size: 9px;&quot;&gt;&lt;span style=&quot;color: rgb(63, 63, 63);&quot;&gt;to&amp;nbsp;&lt;/span&gt;Source S&lt;sub&gt;j&lt;/sub&gt;&amp;nbsp;&lt;/font&gt;&lt;div&gt;&lt;font style=&quot;font-size: 9px;&quot;&gt;&amp;nbsp;&amp;nbsp;with amount A&lt;/font&gt;&lt;/div&gt;&lt;/div&gt;" style="html=1;verticalAlign=bottom;endArrow=block;curved=0;rounded=0;" parent="1" source="6" target="21" edge="1">
                    <mxGeometry x="-0.5382" y="-50" width="80" relative="1" as="geometry">
                        <mxPoint x="140" y="240" as="sourcePoint"/>
                        <mxPoint x="380" y="240" as="targetPoint"/>
                        <Array as="points">
                            <mxPoint x="260" y="240"/>
                        </Array>
                        <mxPoint as="offset"/>
                    </mxGeometry>
                </mxCell>
                <mxCell id="39" value="updateEffect()" style="html=1;verticalAlign=bottom;endArrow=block;curved=0;rounded=0;fontFamily=Helvetica;fontSize=9;fontColor=default;" parent="1" source="36" target="30" edge="1">
                    <mxGeometry width="80" relative="1" as="geometry">
                        <mxPoint x="240" y="330" as="sourcePoint"/>
                        <mxPoint x="320" y="330" as="targetPoint"/>
                        <Array as="points">
                            <mxPoint x="390" y="320"/>
                        </Array>
                    </mxGeometry>
                </mxCell>
                <mxCell id="41" value="updateModulation()" style="html=1;verticalAlign=bottom;endArrow=block;curved=0;rounded=0;fontFamily=Helvetica;fontSize=9;fontColor=default;" parent="1" source="36" target="42" edge="1">
                    <mxGeometry x="-0.2143" width="80" relative="1" as="geometry">
                        <mxPoint x="240" y="350" as="sourcePoint"/>
                        <mxPoint x="320" y="350" as="targetPoint"/>
                        <mxPoint as="offset"/>
                    </mxGeometry>
                </mxCell>
                <mxCell id="8" value="Object created" style="html=1;verticalAlign=bottom;startArrow=oval;startFill=1;endArrow=classic;startSize=8;curved=0;rounded=0;endFill=1;" parent="1" target="9" edge="1">
                    <mxGeometry x="-0.0588" width="60" relative="1" as="geometry">
                        <mxPoint x="300" y="120" as="sourcePoint"/>
                        <mxPoint x="390" y="120" as="targetPoint"/>
                        <mxPoint as="offset"/>
                    </mxGeometry>
                </mxCell>
                <mxCell id="47" value="&lt;div&gt;&lt;br&gt;&lt;/div&gt;&lt;div&gt;&lt;br&gt;&lt;/div&gt;" style="html=1;verticalAlign=bottom;endArrow=open;dashed=1;endSize=8;curved=0;rounded=0;fontFamily=Helvetica;fontSize=9;fontColor=default;" parent="1" source="30" target="36" edge="1">
                    <mxGeometry relative="1" as="geometry">
                        <mxPoint x="405" y="395" as="targetPoint"/>
                        <mxPoint x="545" y="395" as="sourcePoint"/>
                        <Array as="points">
                            <mxPoint x="380" y="380"/>
                        </Array>
                    </mxGeometry>
                </mxCell>
                <mxCell id="51" value="Actual effect logic" style="html=1;align=left;spacingLeft=2;endArrow=block;rounded=0;edgeStyle=orthogonalEdgeStyle;curved=0;rounded=0;fontFamily=Helvetica;fontSize=9;fontColor=default;" parent="1" source="30" edge="1">
                    <mxGeometry relative="1" as="geometry">
                        <mxPoint x="545" y="350" as="sourcePoint"/>
                        <Array as="points">
                            <mxPoint x="575" y="360"/>
                            <mxPoint x="575" y="380"/>
                        </Array>
                        <mxPoint x="545" y="380" as="targetPoint"/>
                        <mxPoint as="offset"/>
                    </mxGeometry>
                </mxCell>
                <mxCell id="52" value="&lt;div&gt;&lt;br&gt;&lt;/div&gt;&lt;div&gt;&lt;br&gt;&lt;/div&gt;" style="html=1;verticalAlign=bottom;endArrow=open;dashed=1;endSize=8;curved=0;rounded=0;fontFamily=Helvetica;fontSize=9;fontColor=default;" parent="1" source="42" target="36" edge="1">
                    <mxGeometry relative="1" as="geometry">
                        <mxPoint x="250" y="460" as="targetPoint"/>
                        <mxPoint x="390" y="460" as="sourcePoint"/>
                        <Array as="points">
                            <mxPoint x="310" y="470"/>
                        </Array>
                    </mxGeometry>
                </mxCell>
            </root>
        </mxGraphModel>
    </diagram>
</mxfile>